/* XPM */
static char *fbe8d99c08f548ab9ddedf5a5e4c3368Q5dCgrHwrHCkLRR5[] = {
/* columns rows colors chars-per-pixel */
"65 100 180 2 ",
"   c None",
".  c #11110E",
"X  c #151512",
"o  c #181715",
"O  c #171815",
"+  c #191916",
"@  c #1D1D1A",
"#  c #201F1C",
"$  c #1F201D",
"%  c #21211E",
"&  c #252422",
"*  c #282724",
"=  c #2A2A26",
"-  c #2D2D29",
";  c #302F2B",
":  c #32322D",
">  c #363531",
",  c #383732",
"<  c #3A3A35",
"1  c #3E3D39",
"2  c #413F3A",
"3  c #43423D",
"4  c #49453E",
"5  c #4F483D",
"6  c #534B3E",
"7  c #464541",
"8  c #494742",
"9  c #4C4A44",
"0  c #4E4D4A",
"q  c #534D43",
"w  c #514F49",
"e  c #565047",
"r  c #595246",
"t  c #53524D",
"y  c #5A544B",
"u  c #555552",
"i  c #595752",
"p  c #5B5A54",
"a  c #5D5C59",
"s  c #635D54",
"d  c #615E5B",
"f  c #676057",
"g  c #6C6354",
"h  c #64625C",
"j  c #6A645C",
"k  c #6F685D",
"l  c #736A5D",
"z  c #666561",
"x  c #696661",
"c  c #6C6A64",
"v  c #6E6D69",
"b  c #736D63",
"n  c #716F6B",
"m  c #7C7365",
"M  c #73726C",
"N  c #7A756C",
"B  c #7F786E",
"V  c #767572",
"C  c #797772",
"Z  c #7C7B74",
"A  c #7E7D79",
"S  c #847B6D",
"D  c #837D74",
"F  c #817F7A",
"G  c #8D826F",
"H  c #8A8174",
"J  c #83827C",
"K  c #8A857C",
"L  c #8C887F",
"P  c #958A77",
"I  c #938A7D",
"U  c #858481",
"Y  c #888682",
"T  c #8C8A84",
"R  c #8E8D8A",
"E  c #938D84",
"W  c #928E88",
"Q  c #93928D",
"!  c #9B948B",
"~  c #9E988F",
"^  c #969594",
"/  c #989692",
"(  c #9C9A95",
")  c #9D9C9B",
"_  c #A29A8F",
"`  c #A39C94",
"'  c #A09F9A",
"]  c #A4A29C",
"[  c #ABA69F",
"{  c #AAA193",
"}  c #B1A89C",
"|  c #A5A5A2",
" . c #A8A7A2",
".. c #ABA9A3",
"X. c #ADACAA",
"o. c #B3ACA3",
"O. c #B2AEA9",
"+. c #BBB3A7",
"@. c #B4B2AC",
"#. c #B9B2AA",
"$. c #BFB8AF",
"%. c #B4B3B1",
"&. c #B8B7B2",
"*. c #BCBAB6",
"=. c #BEBDBB",
"-. c #C0B6A7",
";. c #C3BAAE",
":. c #C4BDB3",
">. c #C8BEB1",
",. c #C2BEBA",
"<. c #CCC0AB",
"1. c #C7C1B6",
"2. c #CCC2B5",
"3. c #C3C2BD",
"4. c #CCC5BC",
"5. c #CFC8BE",
"6. c #D2C7B6",
"7. c #D6C8B0",
"8. c #D9CCB5",
"9. c #D0C7B9",
"0. c #D5CBBD",
"q. c #D9CFBD",
"w. c #C4C3C1",
"e. c #CAC7C2",
"r. c #CBCAC6",
"t. c #CECDCA",
"y. c #D3CCC3",
"u. c #D0CFCB",
"i. c #DCD2C4",
"p. c #D3D1CD",
"a. c #DBD5CC",
"s. c #DFD8CC",
"d. c #D5D4D2",
"f. c #DBD6D1",
"g. c #DCD9D4",
"h. c #DEDDDA",
"j. c #E2DACD",
"k. c #E3DDD3",
"l. c #E3DFDA",
"z. c #E9E2D7",
"x. c #E5E1DC",
"c. c #E9E4DC",
"v. c #E6E5E3",
"b. c #E9E7E3",
"n. c #ECE9E4",
"m. c #EFEEED",
"M. c #ECECEA",
"N. c #F1EDE7",
"B. c #F0EBE3",
"V. c #F2EFEA",
"C. c #F0EFEE",
"Z. c #F2EFEC",
"A. c #F4F1EA",
"S. c #F1F0EF",
"D. c #F2F0ED",
"F. c #F6F3EE",
"G. c #F7F4EF",
"H. c #F3F0EA",
"J. c #F1F1F0",
"K. c #F2F1F0",
"L. c #F2F2F1",
"P. c #F3F3F2",
"I. c #F1F2F0",
"U. c #F4F3F2",
"Y. c #F7F4F1",
"T. c #F5F4F3",
"R. c #F7F5F3",
"E. c #F6F5F4",
"W. c #F6F6F5",
"Q. c #F7F6F5",
"!. c #F7F7F6",
"~. c #F5F5F4",
"^. c #F3F2F1",
"/. c #F8F6F2",
"(. c #F8F7F5",
"). c #F8F7F6",
"_. c #F8F8F7",
"`. c #FAF8F6",
"'. c #FAF9F8",
"]. c #FAF9F9",
/* pixels */
"                                                                                                                                  ",
"                                                                                                                                  ",
"                                                                                                                                  ",
"                                                                                                                                  ",
"                                                                                                                                  ",
"                                                                                                                                  ",
"                                                                                                                                  ",
"                                                                                                                                  ",
"                                                                                                                                  ",
"                                                                                                                                  ",
"                                                        M.P.P.C.C.P.P.D.m.                                                        ",
"                                                C.P.D.M.m.U.Y.U.P.U.Y.P.P.M.M.v.h.                                                ",
"                                            z.n.D.U.Y.P.Y.E.E.E.E.E.E.Y.P.P.C.M.v.h.g.d.                                          ",
"                                        k.z.n.D.Y.).).E.E.E.`.).E.E.E.E.E.Y.U.D.m.b.v.g.p.                                        ",
"                                    l.x.c.n.H.Y.).].].).Y.E.].].`.).).`.).E.E.U.P.m.M.v.h.p.e.                                    ",
"                                  l.x.b.N.A.G.).`.].E.E.).].].].].`.`.E.E.E.E.P.P.P.D.M.v.h.r.w.                                  ",
"                                l.b.n.n.V.F.Y./.`.].].P.M.b.l.d.t.u.d.v.M.P.E.P.P.D.D.m.M.x.g.p.3.                                ",
"                              a.x.n.M.N.V.Y.Y./.`.D.t.) U C M n n v x M J ^ =.v.Y.P.P.D.M.v.v.x.p.*.                              ",
"                            2.s.l.b.M.V.A.G./.D.y./ v p d a p d d a u a u 0 a R =.v.P.P.M.m.M.n.l.e.@.                            ",
"                          ;.a.k.x.n.M.N.A./.x.` c d h z x z d d h d u p p p p a a R d.D.M.M.M.b.h.g.t.&.                          ",
"                          2.g.l.b.M.B.N.F.a.D r i h h d d d h d h a t 0 u u u p 0 w V w.m.M.M.b.v.x.g.*.&.                        ",
"                        :.4.g.l.c.c.n.N.f.D r y i d p i a d z d a p 0 0 u u u p u t p v w.m.M.M.M.b.h.3.3.                        ",
"                      @.4.a.l.k.k.z.n.l.E r r i i p i i p d d d p u 0 0 u t u a a a u u V d.P.C.M.b.l.f.p.*.                      ",
"                      *.y.s.j.j.k.z.c.] s r e y i p i i i a p       u u p u u u a a a p u R v.m.b.b.l.a.i.,.                      ",
"                    ~ $.a.s.i.j.j.z.2.g q r r r r i i p                   u u u a u a a a a O.c.c.x.l.s.0.>._                     ",
"                    ] r.h.l.i.s.k.k.! y r y r r q q q                       u u u a a a a a Z i.k.j.j.i.0.9.}                     ",
"                    O.u.h.g.a.j.j.2.m y r r q q q 5                           t t p a u a a j o.k.i.i.i.0.0.+.I                   ",
"                  ! #.y.p.a.a.g.s.{ g y r 6 q e q 4                             u u u u u p s W f.s.q.8.7.<.-.!                   ",
"                  ( *.y.f.g.a.a.0.P g y q 6 q w 9                               w u u u u a f S 4.a.q.0.6.2.:.`                   ",
"                  [ 4.4.5.y.y.s.2.G l s j N k e 9                               8 0 t u p p s b } s.a.f.a.y.4.o.T                 ",
"                K [ :.2.9.9.0.g.#.S l s c F b 9                                   8 t u q r s b ! y.a.a.a.y.4.#.W                 ",
"                T O.:.2.2.4.0.y._ m k s q q 0 4                                   8 0 0 9 r s l H 4.a.a.a.y.4.#.!                 ",
"                W @.4.y.y.y.y.4.T N c j r 9 0 8                                   7 3 3 4 e s l m #.a.y.y.4.>.o.W b               ",
"                Q %.,.4.y.p.p.#.L D l g p w 0 t                                     8 9 q r s b B ` y.a.y.:.+.o.! B               ",
"              v Y X.=.4.e.y.p.O.T B b x s e q                                       8 q y s k m D ` y.y.2.:.X...` D               ",
"              n T ] *.,.e.e.4.] Z v c c s e e                                       0 w i f b N H ` :.2.;...( Q T M               ",
"              M U R  .*.,.3.4.] A M n c i r y                                       8 e s g b D L ` @.,.@.( Q R J c               ",
"              V T ^  .*.e.3.3. .W D C c s i w                                       4 e s g b S H T  .O.] / R T U v               ",
"              v C Q | %.w.w.#.~ K B b j s s q                                       3 q s j b Z Z A ' ] ( Q T J A c t             ",
"              a c U ) X.&.,.} W H m j s s i 4                                       3 w d j M N V J (  .( Q T F C z u             ",
"            8 p c U ( ] X.*.@.E S m l s s i 8                                         0 p z M C V J (  .( Q T A V z t             ",
"            7 u c F ^ X.X.&.@.Q S m l g g i 0                                         0 u p c V A R / ] ( Q K Z M h t             ",
"            7 t z C R ' X.O.) W H m l s h i 8                                         0 u a h z C J R / Q R J Z n h 0             ",
"            7 t d v A ^ | X.( ) H N c s i u 9                                         9 t p h z N J T Q Q T J C v a 0             ",
"            7 0 p z C T Q | ( W H C z a w 0 0                                         3 0 u h c v M J Q Q R J V n a 9             ",
"            7 0 a d V R R | ( D D A z p w 7                                           7 0 u a x x M Y Q R J Z M x a 8             ",
"            1 w a h v T R Q ( A n C h u 0 3                                           < 0 p a h v C J T J A C v h p 7             ",
"            3 9 u p h C T T Q U M M p t 0 7                                           < 0 a a h x M A K J N M c h p 7             ",
"            1 7 u u i v T / Q J z p u t 0 3                                           < 7 t i a h x C Y J M c x z i 7             ",
"            < 8 t u a C Q | R Z v p t w 9 1                                           < 7 t y p h x N J C b x h s i 4             ",
"            , 7 0 u h V Y ) R v h u t 0 7 1                                           2 8 t y p h j v A M x h a i i 9             ",
"            , 7 u a z V T ( ) V z p t 9 3 ,                                           1 7 w y i a h x N v h a y e t 7             ",
"            , 7 u t p V R ) ^ A x p t 8 1 ,                                           < 3 0 t u a h v M x h i i t 0 2             ",
"            , 7 t t a M R Q Y V h y t 8 1 ,                                           , 3 9 t i h h M M x h p i t 9 1             ",
"            , 3 8 u a c V C U C z t 0 7 1 :                                           , 3 9 0 t a h b c h a y w 8 3 1             ",
"            < 1 3 u a c V Z F v h t 9 3 1 :                                           < 8 0 t i a c M x a y t w 8 3 ,             ",
"            , 3 7 t p a C A C z h u 0 9 3 ,                                           , 4 8 0 p h x b h p t 0 0 7 < :             ",
"            , , 1 7 0 u h v v z i t 9 7 1 :                                           , 3 0 0 y h h M j i t 9 8 1 , :             ",
"            - : , 3 9 i z z v c p w 0 4 < :                                           : 1 8 w e i h M j i t 9 3 1 , -             ",
"            = ; : < 7 0 p h v c y 0 8 3 , -                                           : 1 4 0 t i h c c h i 8 3 1 , -             ",
"            = ; : < 7 0 u p a a t 8 7 4 , - =                                         : 1 3 8 q i s x h s p 9 2 < : -             ",
"            = - : , 3 0 t w i y t 8 3 3 < : -                                         : 1 3 8 0 y d c a y i 0 1 : : -             ",
"            = = - , 1 7 7 8 y y t 9 3 < 1 : =                                         : < 3 8 0 y s j y w 0 3 , : - =             ",
"            & = - : , 3 7 8 y e 0 8 1 < 1 : =                                         , 3 4 7 w p h h t 0 4 2 , : - *             ",
"            & * - - > < < 1 t y 8 7 1 < < , -                                         , 4 9 8 y p h h 0 8 3 < : - = *             ",
"              & = - : , , , 3 0 0 8 1 , , , :                                       - : 1 4 8 t i h h 9 8 8 < - - = &             ",
"              % = - : ; : , 4 q 9 7 1 < , : :                                       - , 3 7 8 t h v d 9 7 3 < - = * &             ",
"              $ * - : - : : 8 i 0 4 1 1 < : -                                       : < 3 8 0 i n F z 0 7 < : - = *               ",
"              @ & - - : - : 1 t t 0 3 1 , : =                                       > , 3 9 i c N J j 9 4 < - = * =               ",
"              @ & = = & - - , t y 8 3 < , , =                                       , < 3 0 p c N D i 4 2 < = = & &               ",
"              @ @ & & % & - : 0 t 8 3 < , , -                                       , 3 3 w h n D D 8 1 , : - & % @               ",
"              O @ % % % % = = 4 y 0 4 1 < , : &                                     , 3 0 t h N K b , : = = = & % #               ",
"                @ @ @ % % & & < p 0 3 1 1 1 , =                                   ; < 7 w y s N K p : = = * & & &                 ",
"                O @ @ @ % % $ = y t 3 3 1 1 , -                                   : 1 0 t y i M Y 8 ; = * * & * @                 ",
"                O @ @ @ % @ @ & 3 t 0 4 3 1 < : =                                 , 3 t i h c A V , - * * & * * @                 ",
"                O O @ @ % @ @ % < i y 0 9 7 3 < ;                               < 1 0 y h M Z T a = * & & & & % @                 ",
"                  O O + @ @ O @ = i a u y 0 8 3 ,                               3 w p a v A T W 3 = & % & & % @                   ",
"                  O O O @ @ @ + @ 8 c h a i y t 8 3                           t y h v M C T | A = & & & % % @ @                   ",
"                    O O + @ & % + - v M x h h h h h h                         h N Z A J T ( ..u @ % & & % @ @ @                   ",
"                    O O @ @ & & @ @ p J Z Z C Z C Z J Q                     A J R T R (  .*.E = @ % % % % % @                     ",
"                    O + @ & & & @ + - A Q W L J J Q ` ] X.              ..'  .] ] ( ( ] @.&.p @ # # # & % @ O                     ",
"                      O @ @ @ @ @ O O 7 Q / R Q ] X.@.@.*.3.e.r.r.e.w.3.*.@.*.3.@... .&.*.V & @ # # @ % @ O                       ",
"                      O O + + + + O O O i (  .@.=.w.=.3.r.t.r.r.t.r.t.r.r.3.,.3.3.*.*.3.U - @ @ @ @ @ @ O O                       ",
"                        O O O O O O O O @ z &.r.p.p.t.p.p.p.p.t.t.t.t.t.t.t.r.r.p.p.t./ , @ @ + @ @ @ O O                         ",
"                          O O O O + O O O % x *.d.d.d.d.p.p.p.p.p.u.u.u.t.t.p.p.d.r.R , @ @ @ + O @ @ O                           ",
"                            O O O O O O O O O 3 Q r.d.d.d.p.p.p.p.u.t.u.u.p.p.t.X.d & O O @ @ @ O O O O                           ",
"                            O O O O O O O X X X % a ( *.t.u.t.u.p.p.p.p.r.3.] v : O O O O O O + @ + O                             ",
"                              O O O O O X O O O O @ & < u v U / ( ( R C d 7 & X O O O O O O O O O +                               ",
"                                O O X O X O O X O O . . . X O % @ % @ O X . . . O . X O O O O O O                                 ",
"                                    X X X X X . . X X X X . . O O . . O O X . O X . O O O O O O                                   ",
"                                      . X X X . X O X X . . . O O . . . O O X O . . O O O O                                       ",
"                                          X X X X O X . . . . O O X . . . O O O X O O O O                                         ",
"                                              . X . . X . . . . O X . . . X O O . O O                                             ",
"                                                    X . . . . . O O . . . X O X                                                   ",
"                                                                                                                                  ",
"                                                                                                                                  ",
"                                                                                                                                  ",
"                                                                                                                                  ",
"                                                                                                                                  ",
"                                                                                                                                  "
};
