/* XPM */
static char *acffce3268a6448ea49d5219d75086a2wmeOkvPJu5IbhVNv[] = {
/* columns rows colors chars-per-pixel */
"53 100 178 2 ",
"   c None",
".  c #0F100E",
"X  c #11110E",
"o  c #151513",
"O  c #171815",
"+  c #181916",
"@  c #1C1D1B",
"#  c #1F201E",
"$  c #21211F",
"%  c #242522",
"&  c #272826",
"*  c #292926",
"=  c #2D2D2A",
"-  c #302F2C",
";  c #2F302C",
":  c #31312E",
">  c #353532",
",  c #383735",
"<  c #393936",
"1  c #3D3D39",
"2  c #413D37",
"3  c #413F3B",
"4  c #42413E",
"5  c #464542",
"6  c #494742",
"7  c #4B4944",
"8  c #4D4C4A",
"9  c #514D47",
"0  c #514F4A",
"q  c #545047",
"w  c #53514D",
"e  c #5A554D",
"r  c #5E584E",
"t  c #555452",
"y  c #5A5751",
"u  c #5C5A54",
"i  c #5E5D5A",
"p  c #615D56",
"a  c #615E5A",
"s  c #666056",
"d  c #696357",
"f  c #64615C",
"g  c #69645D",
"h  c #6E685E",
"j  c #726A5E",
"k  c #646462",
"l  c #696761",
"z  c #676866",
"x  c #6D6A63",
"c  c #6D6D6C",
"v  c #736D63",
"b  c #716E6A",
"n  c #777066",
"m  c #7A7266",
"M  c #75726C",
"N  c #7B756C",
"B  c #7E786E",
"V  c #757472",
"C  c #797570",
"Z  c #7C7973",
"A  c #7C7C7B",
"S  c #80796D",
"D  c #887F6E",
"F  c #837D74",
"G  c #827E7A",
"H  c #848077",
"J  c #898176",
"K  c #85817A",
"L  c #8B847B",
"P  c #8F887D",
"I  c #938A7D",
"U  c #9A8F7D",
"Y  c #848482",
"T  c #8B8780",
"R  c #8C8983",
"E  c #8B8B8A",
"W  c #938C84",
"Q  c #988F83",
"!  c #938F89",
"~  c #979086",
"^  c #9C9385",
"/  c #95918C",
"(  c #9B948B",
")  c #9E988F",
"_  c #939493",
"`  c #999692",
"'  c #9E9992",
"]  c #9B9B9B",
"[  c #A1978A",
"{  c #A3998C",
"}  c #A29C94",
"|  c #A99F90",
" . c #A39E99",
".. c #A7A196",
"X. c #AAA295",
"o. c #A3A19E",
"O. c #ABA49B",
"+. c #AFA99F",
"@. c #B5A791",
"#. c #B6A890",
"$. c #BCAE96",
"%. c #B0A79B",
"&. c #B3A99B",
"*. c #B8AD9B",
"=. c #BCB19D",
"-. c #A2A2A1",
";. c #AEA9A2",
":. c #ACACAC",
">. c #B3ACA3",
",. c #B9AFA1",
"<. c #B3AFAA",
"1. c #BDB3A5",
"2. c #B7B2AB",
"3. c #BAB4AC",
"4. c #BEB8AE",
"5. c #B7B6B6",
"6. c #BFB8B0",
"7. c #BABABA",
"8. c #C1B6A2",
"9. c #C7BBA7",
"0. c #CABCA3",
"q. c #C4BBAC",
"w. c #CABFAF",
"e. c #C2BCB1",
"r. c #C8BFB0",
"t. c #C6C0B6",
"y. c #CCC4B7",
"u. c #C2C0BD",
"i. c #CAC4BA",
"p. c #D8CDBC",
"a. c #C6C6C5",
"s. c #CAC6C1",
"d. c #CDC9C3",
"f. c #CDCDCD",
"g. c #D3CDC2",
"h. c #D1CFCB",
"j. c #D7D0C5",
"k. c #DED5C5",
"l. c #D4D1CB",
"z. c #DBD5CB",
"x. c #DDDAD4",
"c. c #DDDCDB",
"v. c #E2D9CB",
"b. c #E2DDD4",
"n. c #E1DFDA",
"m. c #E3E2DE",
"M. c #EAE5DD",
"N. c #E5E4E3",
"B. c #E9E7E3",
"V. c #ECE9E4",
"C. c #EDECEB",
"Z. c #F3EEE7",
"A. c #F1EDE5",
"S. c #F1EEE9",
"D. c #F0EFED",
"F. c #F5F1EB",
"G. c #F0F0EF",
"H. c #F2F1EF",
"J. c #F1F0ED",
"K. c #F5F2ED",
"L. c #F2F1F0",
"P. c #F3F2F0",
"I. c #F3F2F1",
"U. c #F3F3F2",
"Y. c #F1F1F0",
"T. c #F4F2F0",
"R. c #F4F3F2",
"E. c #F7F5F0",
"W. c #F5F4F2",
"Q. c #F5F5F4",
"!. c #F7F7F6",
"~. c #F6F6F5",
"^. c #F4F4F4",
"/. c #F8F5F1",
"(. c #F9F6F3",
"). c #F8F7F6",
"_. c #F8F8F7",
"`. c #F8F8F8",
/* pixels */
"                                                                                                          ",
"                                                                                                          ",
"                                                                                                          ",
"                                                                                                          ",
"                                                                                                          ",
"                                                                                                          ",
"                                                                                                          ",
"                                                                                                          ",
"                                                                                                          ",
"                                                                                                          ",
"                                                      t.A.A.A.A.A.A.A.A.A.S.b.'                           ",
"                                                    U =.M.F.F.F.F.H.F.F.H.V.O.p                           ",
"                                                    #.0.v.H./.^.^./.^./.S.4.S d                           ",
"                                                  @.9.p.k.V././././.).S.e.I D j                           ",
"                                                  $.j.x.z.b.S.K././.S.e.U J S d                           ",
"                                                *.8.z.V.B.x.B.J.H.C.d.+.X.O.P j                           ",
"                                                i.g.z.m.m.m.n.C.U.B.l.e.3.<.( M                           ",
"                                              t.z.m.B.C.C.C.D.U.C.m.x.e.2.O.! n                           ",
"                                            1.y.x.C.J.H.J.J.Q.U.N.n.x.e.>.O.! Z                           ",
"                                          q.w.j.B.J.J.T.^.Q.).U.B.B.c.s.2.;./ Z                           ",
"                                        N.x.k.b.C.J.C.H.Q.Q.).C.B.m.c.a.<. .L n                           ",
"                                      N.V.C.M.M.V.B.M.B.C.J.C.m.x.h.u.u.3.' H h                           ",
"                                    C.C.C.J.C.V.M.M.B.C.D.D.n.d.i.6.>.+.O. .F v                           ",
"                                  C.C.C.U.U.U.J.C.B.C.T.^.T.x.y.r.q.3.+.(  .G b                           ",
"                              N.V.C.C.J.U.U.Q.Q.T.S.T.T.C.m.g.r.w.e.3.;. .' / Z                           ",
"                            C.C.C.J.U.U.^.Q.Q.Q.C.x.u. .K L q.w.q.q.3.;. .' / A                           ",
"                        C.C.C.U.U.Q.Q.Q.Q.Q.C.7.K h i w 9 q ^ w.q.q.2.O.` ` R b                           ",
"                      C.C.C.C.U.^.Q.Q.`.C.7.Y k 7 7 w w 9 q M q.q.1.+. ./ ` R c                           ",
"                  C.C.C.C.U.U.^.Q.Q.`.c._ k t t 9 9 0 0 q 9 y +.q.&...^ ! ` Y c                           ",
"              C.C.C.C.U.U.^.Q.Q._.Q.f.A u w 0 6 7 7 9 q 7 6 q ( 1.| { I J ! Z i                           ",
"          C.C.U.U.U.U.Q.Q.Q.Q.`.U.5.c u 0 7 6 6 6 6 7 9 7 r v [ ,.O.[ I P ! M e                           ",
"        :.N.U.Q.Q.Q.Q.Q.Q.Q.Q.m.] k u t 6 7 6 7 8 8 w 0 y d v U &.>.^ I L T x e                           ",
"        z :.N.Q._.`._.Q.`.U.a.A t t t t 7 7 6 6 7 w w i h d j I >.>...~ J H x e                           ",
"        V E :.c.Q.`.`.Q.c.] l t w w w w w 8 8 0 f x v Z L W Q } O.O.O.' P F x i                           ",
"        V _ ] :.f.C.N.:.c t t w w w w t 0 8 8   Z N F R / } >.>.X.O.} ' P m x y                           ",
"        V E ] -.:.:.A u 8 8 8 8 8 w 0 0 8       V G R J P ^ O.%.[ }  .~ J v x y                           ",
"        V E _ ] o.M 8 8 0 w 8 8 8 8 8 7         x G R F J I [ { ^ ^ ) W S n x y                           ",
"        c E _ -.R t 8 8 8 8 8 8 7 6 5           l Z R H J L ^ { ^ Q ^ R F N h q                           ",
"        z Y / E i 8 8 8 8 8 8 8 6               f C K F S P ^ [ U Q ) ! L F g 0                           ",
"        z Z K l 6 8 8 8 8 8 8 7                 a M H n N ~ ) [ ( ( ^ W H Z l w                           ",
"        z A M 8 5 8 8 8 7 7                     f C F v B ! ' X.O.} ^ T F M h t                           ",
"        x V u 5 5 5 5 5                         i M G n m F ~ +.;.} ~ L F b f w                           ",
"        f u 5 5 5 4                             a C H F N P } O.+.} ! H C x i 0                           ",
"        t 5 5 4                                 a M N N J ! ) } } ( ! H M k 8 4                           ",
"        1 5                                     y p x M F P ! ) ) ! R H b u 8 3                           ",
"                                                y p h v N H ! ( ( R H Z x u 8 3                           ",
"                                                7 y h v B F R ^ ^ H F M l a 8 1                           ",
"                                                4 e h h N F J ! ^ L F M x i w 4                           ",
"                                                6 e y s v N J W Q J S v h i 7 1                           ",
"                                                8 i r p j m F I J J N x d t 5 ,                           ",
"                                                6 e p d j v F P L F B h f w 4 ,                           ",
"                                                2 7 p h v x N J J F N x u 6 1 ,                           ",
"                                                2 9 p h h v n m F N n x i 7 , ,                           ",
"                                                4 0 p h v v m m F N v x y 5 1 ,                           ",
"                                                < 7 y d x v N F F Z M l y 8 4 ,                           ",
"                                                2 7 e f h x N Z Z N n h e w 4 >                           ",
"                                                1 7 q u h h n Z N x h f 0 8 1 ,                           ",
"                                                1 7 w u u i x v n l a a 8 4 , =                           ",
"                                                1 7 t a a f x c v i i w 4 1 > =                           ",
"                                                > 6 w i a p g n c y w 7 4 < , :                           ",
"                                                > 3 6 t u y g x l 0 7 7 1 , , >                           ",
"                                                = < 5 0 0 w f i f w 7 5 4 1 , *                           ",
"                                                * , 8 y e e y t u i 8 4 1 , = =                           ",
"                                                * , 6 8 w 8 e u u t 5 1 , : = :                           ",
"                                                * , 1 , 4 7 w t 8 7 4 1 , : = =                           ",
"                                                & , 4 4 5 5 6 8 6 4 1 1 , , - =                           ",
"                                                & , 4 5 5 1 6 8 5 4 1 1 , , = =                           ",
"                                                = > , , , 1 5 7 5 4 1 1 , - = =                           ",
"                                                & = : , , 4 7 5 6 4 1 , : = = %                           ",
"                                                & = = , , 4 7 7 5 1 1 , : = & $                           ",
"                                                % * = , , 1 4 5 5 4 1 , - = * %                           ",
"                                                % = : > > 1 1 5 7 5 , > , = = %                           ",
"                                                % = = = , , 1 4 7 1 , > > = & %                           ",
"                                                % & * = : > , 1 4 , , > = : & &                           ",
"                                                @ % % * = : , , , , , : = = & =                           ",
"                                                + $ $ % = : , , , , > : = = % %                           ",
"                                                + @ $ % * : , , 1 , , : = = * @                           ",
"                                                + @ % % * : : , , , : = = = & @                           ",
"                                                + @ @ % = = : , , > : & * = % @                           ",
"                                                + @ # & = = : : : = = * = = @ +                           ",
"                                                + @ % * = = : : = = = : , * @ +                           ",
"                                                @ # % % = = , , = = > , : & @ @                           ",
"                                                + @ % % * = : : ; = = = & $ @ @                           ",
"                                                + @ % % = = , < , = * = % @ @ +                           ",
"                                                O @ $ * = = > < , : = = % $ @ +                           ",
"                                                o + @ $ % * ; % & = : = % @ $ +                           ",
"                                                o O + @ $ % @ O + & = * $ $ @ O                           ",
"                                                o o + + @ + o o O + % % @ @ + o                           ",
"                                                o O @ @ O o o O + + + @ @ @ + o                           ",
"                                                o + @ + O o o O O + O O + + + o                           ",
"                                                o O O o O O O o o O o O O O o o                           ",
"                                                o o o o O O O o O O o O o X o X                           ",
"                                                . X o o o o O o + O o O o o X X                           ",
"                                                                                                          ",
"                                                                                                          ",
"                                                                                                          ",
"                                                                                                          ",
"                                                                                                          ",
"                                                                                                          ",
"                                                                                                          "
};
